{"title":"The.Strain.S02E07.HDTV.480p.x264.AAC-VYTO [P2PDL]","uid":12280388,"size":153775991,"categoryP":"video","categoryS":"hd___tv_shows","magnet":"?xt=urn:btih:a1487e8a413b839dcf9cfe22e23067ba97303225&amp;dn=The.Strain.S02E07.HDTV.480p.x264.AAC-VYTO+%5BP2PDL%5D&amp;tr=udp%3A%2F%2Ftracker.openbittorrent.com%3A80&amp;tr=udp%3A%2F%2Fopen.demonii.com%3A1337&amp;tr=udp%3A%2F%2Ftracker.coppersurfer.tk%3A6969&amp;tr=udp%3A%2F%2Fexodus.desync.com%3A6969","seeders":3,"leechers":1,"uploader":"ValidusVyto","files":6,"time":1440407589,"description":"____    ____ ____    ____ .___________.  ______   \n     /   /      /   / |           | /  __    \n    /   /      /   /  `---|  |----`|  |  |  | \n        /     _    _/       |  |     |  |  |  | \n       /        |  |         |  |     |  `--'  | \n    __/         |__|         |__|      ______/  \n                                                  \nPresenting Small Encodes with quality for years!\n                                                                                                   \n                                                                                                   \n\nThe.Strain.S02E07.HDTV.480p.x264.AAC-VYTO\n\n\nGeneral\nFormat                         : MPEG-4\nFile size                      : 141 MiB\nDuration                       : 43mn 6s\nOverall bit rate               : 458 Kbps\n\nVideo\nFormat                         : AVC\nBit rate                       : 423 Kbps\nWidth                          : 720 pixels\nHeight                         : 400 pixels\nDisplay aspect ratio           : 16:9\nFrame rate mode                : Constant\nFrame rate                     : 23.976 fps\nBit depth                      : 8 bits\nStream size                    : 130 MiB (92%)\nWriting library                : x264 core 148 r2597 e86f3a1\n\nAudio\nFormat                         : AAC\nBit rate mode                  : Variable\nBit rate                       : 32.0 Kbps\nChannel(s)                     : 2 channels\nChannel positions              : Front: L R \nSampling rate                  : 48.0 KHz \nStream size                    : 9.87 MiB (7%)\n\nScreenshots:\n &lt;a href=&quot;\nhttp://ititli.com/UB&quot; rel=&quot;nofollow&quot; target=&quot;_NEW&quot;&gt;\nhttp://ititli.com/UB&lt;/a&gt; &lt;a href=&quot;\nhttp://ititli.com/UN&quot; rel=&quot;nofollow&quot; target=&quot;_NEW&quot;&gt;\nhttp://ititli.com/UN&lt;/a&gt; &lt;a href=&quot;\nhttp://ititli.com/UP&quot; rel=&quot;nofollow&quot; target=&quot;_NEW&quot;&gt;\nhttp://ititli.com/UP&lt;/a&gt; &lt;a href=&quot;\nhttp://ititli.com/Uf&quot; rel=&quot;nofollow&quot; target=&quot;_NEW&quot;&gt;\nhttp://ititli.com/Uf&lt;/a&gt; &lt;a href=&quot;\nhttp://ititli.com/Uu&quot; rel=&quot;nofollow&quot; target=&quot;_NEW&quot;&gt;\nhttp://ititli.com/Uu&lt;/a&gt; &lt;a href=&quot;\nhttp://ititli.com/Uv&quot; rel=&quot;nofollow&quot; target=&quot;_NEW&quot;&gt;\nhttp://ititli.com/Uv&lt;/a&gt; &lt;a href=&quot;\nhttp://ititli.com/UR&quot; rel=&quot;nofollow&quot; target=&quot;_NEW&quot;&gt;\nhttp://ititli.com/UR&lt;/a&gt; &lt;a href=&quot;\nhttp://ititli.com/Uy&quot; rel=&quot;nofollow&quot; target=&quot;_NEW&quot;&gt;\nhttp://ititli.com/Uy&lt;/a&gt; &lt;a href=&quot;\nhttp://ititli.com/U3&quot; rel=&quot;nofollow&quot; target=&quot;_NEW&quot;&gt;\nhttp://ititli.com/U3&lt;/a&gt; &lt;a href=&quot;\nhttp://ititli.com/UE&quot; rel=&quot;nofollow&quot; target=&quot;_NEW&quot;&gt;\nhttp://ititli.com/UE&lt;/a&gt; &lt;a href=&quot;\nhttp://ititli.com/UQ&quot; rel=&quot;nofollow&quot; target=&quot;_NEW&quot;&gt;\nhttp://ititli.com/UQ&lt;/a&gt; &lt;a href=&quot;\nhttp://ititli.com/US&quot; rel=&quot;nofollow&quot; target=&quot;_NEW&quot;&gt;\nhttp://ititli.com/US&lt;/a&gt;\n\n----------------------------------------------------------------------------------------------------\n\n\nEncoder Notes: Looking For Early Access To Anything You Can Provide DVDScr, R5, DVDR, BluRay, Direct\nAudio, Music Releases and Seedboxes. If You Got anything to offer please contact us.\n\nSupport us by donating BC - 1FgwdzPsd1y25Gea8wP1qni35uGCtmkRCD","torrent":{"xt":"urn:btih:a1487e8a413b839dcf9cfe22e23067ba97303225","amp;dn":"The.Strain.S02E07.HDTV.480p.x264.AAC-VYTO+%5BP2PDL%5D","amp;tr":["udp%3A%2F%2Ftracker.openbittorrent.com%3A80","udp%3A%2F%2Fopen.demonii.com%3A1337","udp%3A%2F%2Ftracker.coppersurfer.tk%3A6969","udp%3A%2F%2Fexodus.desync.com%3A6969"],"infoHash":"a1487e8a413b839dcf9cfe22e23067ba97303225","infoHashBuffer":{"type":"Buffer","data":[161,72,126,138,65,59,131,157,207,156,254,34,226,48,103,186,151,48,50,37]},"announce":[],"urlList":[]}}